<svg width="24" height="24" viewBox="0 0 24 24" fill="none" xmlns="http://www.w3.org/2000/svg">
<g clip-path="url(#clip0_3294_79)">
<path d="M11.011 2C15.9748 2 20.0034 6.032 20.0034 11C20.0034 15.968 15.9748 20 11.011 20C6.0472 20 2.01862 15.968 2.01862 11C2.01862 6.032 6.0472 2 11.011 2ZM11.011 18C14.8747 18 18.0051 14.867 18.0051 11C18.0051 7.132 14.8747 4 11.011 4C7.14627 4 4.01692 7.132 4.01692 11C4.01692 14.867 7.14627 18 11.011 18ZM19.4888 18.071L22.3154 20.899L20.9016 22.314L18.076 19.485L19.4888 18.071Z" fill="#322E29"/>
</g>
<defs>
<clipPath id="clip0_3294_79">
<rect width="23.9797" height="24" fill="white" transform="translate(0.0203247)"/>
</clipPath>
</defs>
</svg>
